<svg xmlns="http://www.w3.org/2000/svg" viewBox="0 0 494.2 679.71"><defs><style>.cls-1{fill:#151619;}</style></defs><g id="Livello_2" data-name="Livello 2"><g id="Livello_1-2" data-name="Livello 1"><path class="cls-1" d="M245.08,214c-11.55-10.51-34.45-25-74.18-24.81s-33.24,20.67-33.24,20.67-.81,16.71,25.14,17.23,53.77,1.55,76.34,10S256.64,224.49,245.08,214Z"/><path class="cls-1" d="M151.18,252.17c-2.39,1.44-3,5.49-.23,6,15.69,2.86,40.51,8.06,68.2,3.59,2.62-.42,2.23-4,.33-5.85C209.66,246.3,183.28,232.83,151.18,252.17Z"/><path class="cls-1" d="M477.66,520.92a3.4,3.4,0,0,0-6,.87c-16.15,48-29.37,36.24-35.48,25.92a43.73,43.73,0,0,1-4.7-11.68c-15.41-61.32-1.3-117.8-1.3-117.8,8.39,26.1,30.39,33.84,41.66,36.1a3.44,3.44,0,0,0,3.72-5c-43.18-84.62-17.65-120.48-17.65-120.48,7.43,8.26,19.68,9,27.4,8.57a3.46,3.46,0,0,0,2.38-5.76c-31.29-34.54-33.67-46.26-34.89-104.76-.67-32.42-12.06-49.47-22.65-58.35-12.12-10.15-21.79-23.08-27.08-38C360.85,11.89,281.86-3.79,208.56.65c-91,5.52-139.45,75.16-162.45,109.86C21.78,147.2,2.82,201.45,4.1,218.05s16.6,14,16.6,33.19-29.66,35.15-18,89.1c5.15,23.77,26,41.59,16.62,95.89C2.55,533.82,77.36,652.4,96,670.09c2.26,2.13,6.23.41,5.82-2.67-2.91-21.78,1.35-52,1.35-52,37.48,80.33,142.34,65.43,175.18,58.54a3.45,3.45,0,0,0,.91-6.43c-33.16-17.61-40.74-53.39-40.74-53.39,33,15.62,54.14,13,64.33,9.65a3.45,3.45,0,0,0,.75-6.19c-9.94-6.24-25.09-32-36.55-57.21a60.55,60.55,0,0,1,8.82-63.92c13.41-16,31-38.33,51-62.06,4.18-5,10-.12,12.2,5.3C368.29,512.86,406.3,568,432.5,583.2c19,11.73,39.81,13.84,49.16,6.46C507.44,569.33,487,534.26,477.66,520.92ZM161.34,452.84C130,454.73,137.14,414,114.12,415c-24.66,1.1-17.27,32.16-33.81,34.05s-14.61-45.61-3-51.12c18.29-8.66,39.71-10.74,56.86-10.14,20.32.7,39.73-.09,48.84,19.45C193.8,430.29,192.67,451,161.34,452.84ZM359.53,161.78c-41.67,24.76-44.12,37-50.09,80.54-1.32,9.57-2.66,20.77,1.72,27.1,9.89,14.29,28.7,24.87,23.54,49-12.3,57.43-44.73,124.76-88.23,145.8-5.24,2.53-11.24-2.59-12.46-8.27-4.85-22.76-16.39-64.14-19.51-77.65v0c-15.49-77.39-89.31-78.46-91.38-63.66-.61,4.4,14.95,10.2,24.83,13.42,9.07,3,9.38,15.94.35,19a25.27,25.27,0,0,1-7.32,1.18h0c-18.25-1.25-41.4.17-51.84.93A14.09,14.09,0,0,1,74.2,337.51c-4.08-23.69,3.13-32.18,11.85-54.68,4.34-11.2,9.91-33.78,11.84-45.36,1-6.21.57-13.67-.08-19.26a138.08,138.08,0,0,1-.93-19.92c.62-21.47,2.75-39,19.1-39,29.45,0,91.77.09,101.64-14.39,10.35-15.16-47.41-.46-109.48-2.46a5,5,0,0,1-4.81-4.52c0-.38-.07-.75-.11-1.13A7.91,7.91,0,0,1,111,128.2c33.15-.41,58.37-2.71,65-12.37,6.74-9.88-26.76-5.45-64.73-5.1-4.86,0-8.88-.07-8.63-4.92v-.16a7.85,7.85,0,0,1,7.36-7.42c22.34-1.47,31.86-3.17,32.8-10.31s-2.3-6.42-27-5c-5.37.3-3.83-3.77-.78-8.22C122.73,63.35,157.2,30.61,233.47,33,364.13,37.16,360,129.7,364,152.18A9.28,9.28,0,0,1,359.53,161.78Z"/></g></g></svg>